<?xml version="1.0" encoding="UTF-8"?>
<svg version="1.1" xmlns="http://www.w3.org/2000/svg" width="723" height="723">
<path d="M0,0 L7,0 L34,15 L51,25 L79,41 L105,56 L133,72 L157,86 L185,102 L209,116 L237,132 L265,148 L293,164 L299,169 L301,173 L301,513 L297,519 L287,526 L262,540 L245,550 L219,565 L193,580 L179,588 L155,602 L129,617 L108,629 L82,644 L56,659 L30,674 L9,686 L1,686 L-15,678 L-39,664 L-64,650 L-81,640 L-104,627 L-125,615 L-153,599 L-179,584 L-200,572 L-228,556 L-249,544 L-275,529 L-288,521 L-293,515 L-294,513 L-294,175 L-290,168 L-281,162 L-252,145 L-224,129 L-205,118 L-181,104 L-153,88 L-126,72 L-101,58 L-77,44 L-51,29 L-30,17 L-5,2 Z M-11,37 L-37,52 L-63,67 L-87,81 L-113,96 L-139,111 L-163,125 L-188,139 L-212,153 L-240,169 L-253,177 L-254,180 L-227,195 L-206,207 L-201,208 L-184,198 L-158,183 L-130,167 L-107,154 L-81,139 L-55,124 L-27,108 L-10,98 L-8,92 L-8,37 Z M18,37 L17,38 L17,98 L43,113 L71,129 L98,144 L119,156 L142,169 L163,181 L188,195 L211,208 L216,206 L241,192 L262,180 L262,177 L237,163 L216,151 L192,137 L164,121 L140,107 L112,91 L88,77 L67,65 L43,51 L19,37 Z M-11,129 L-37,144 L-63,159 L-89,174 L-115,189 L-138,202 L-162,216 L-174,223 L-170,227 L-143,242 L-124,253 L-120,252 L-93,237 L-76,227 L-48,211 L-24,197 L-10,189 L-8,187 L-8,129 Z M17,130 L17,188 L34,198 L63,214 L86,227 L111,241 L131,253 L136,253 L153,243 L178,229 L184,225 L180,221 L153,206 L131,193 L103,177 L78,163 L54,149 L29,135 L21,130 Z M-268,204 L-268,486 L-262,484 L-240,471 L-217,458 L-216,456 L-216,232 L-244,216 L-265,204 Z M273,204 L246,220 L225,232 L224,233 L224,456 L245,468 L270,482 L273,484 L276,484 L276,204 Z M18,219 L17,220 L17,273 L22,277 L50,293 L55,296 L61,295 L88,280 L105,270 L105,268 L87,258 L68,247 L47,235 L24,222 Z M-11,220 L-35,234 L-60,248 L-79,259 L-94,268 L-95,271 L-71,284 L-50,296 L-45,295 L-17,279 L-8,273 L-8,220 Z M-189,247 L-190,248 L-190,440 L-186,439 L-159,424 L-142,414 L-137,411 L-137,278 L-141,274 L-166,260 L-188,247 Z M196,249 L173,262 L149,276 L145,279 L145,409 L150,413 L179,429 L197,439 L198,439 L198,249 Z M-111,292 L-112,293 L-112,394 L-110,395 L-82,379 L-62,367 L-61,366 L-61,321 L-77,311 L-103,296 Z M116,294 L99,304 L75,318 L69,322 L69,363 L74,367 L101,382 L116,391 L120,392 L120,294 Z M55,387 L30,401 L17,409 L17,468 L23,466 L40,456 L66,441 L94,425 L106,418 L106,415 L88,405 L67,393 L57,387 Z M-46,389 L-71,403 L-96,418 L-95,421 L-68,436 L-43,450 L-15,466 L-9,469 L-8,465 L-9,409 L-32,396 L-44,389 Z M131,434 L118,442 L92,457 L67,471 L50,481 L27,494 L18,500 L17,501 L17,559 L23,557 L49,542 L75,527 L103,511 L129,496 L155,481 L180,467 L183,465 L183,462 L160,449 L136,435 Z M-125,435 L-150,449 L-165,458 L-174,464 L-170,468 L-152,478 L-128,492 L-106,504 L-82,518 L-57,532 L-33,546 L-10,559 L-8,557 L-9,500 L-30,488 L-56,473 L-84,457 L-109,443 L-122,435 Z M-204,480 L-230,495 L-253,508 L-253,511 L-228,525 L-211,535 L-186,549 L-162,563 L-137,577 L-113,591 L-85,607 L-59,622 L-34,636 L-12,649 L-8,648 L-8,592 L-12,588 L-38,573 L-63,559 L-87,545 L-114,530 L-138,516 L-163,502 L-184,490 L-201,480 Z M210,480 L186,494 L161,508 L137,522 L112,536 L86,551 L58,567 L33,581 L18,590 L17,591 L17,648 L22,647 L50,631 L76,616 L99,603 L123,589 L144,577 L172,561 L200,545 L228,529 L254,514 L262,509 L258,505 L234,492 L219,483 L214,480 Z " fill="#000000" transform="translate(356,12)"/>
</svg>
